<svg xmlns="http://www.w3.org/2000/svg" viewBox="0 0 140.7 136.15"><title>Asset 2</title><g id="Layer_2" data-name="Layer 2"><g id="Layer_1-2" data-name="Layer 1"><path d="M51.57,136.15q-13.13,0-22.88-4.41A46.3,46.3,0,0,1,12.56,120a47.85,47.85,0,0,1-9.47-16.78A62.69,62.69,0,0,1,0,83.64V0H18.57V82.51a54.37,54.37,0,0,0,1.69,13.41,34.1,34.1,0,0,0,5.53,11.91,28,28,0,0,0,10.13,8.44q6.28,3.19,15.66,3.19,9.19,0,15.56-3.19a27.82,27.82,0,0,0,10.22-8.44,34.15,34.15,0,0,0,5.53-11.91,54.37,54.37,0,0,0,1.69-13.41l.27-46.28h18.29V83.64a62.69,62.69,0,0,1-3.09,19.6A47.9,47.9,0,0,1,90.58,120a46.35,46.35,0,0,1-16.13,11.72Q64.7,136.14,51.57,136.15Z"/><polygon points="140.7 133.52 122.13 133.52 122.13 20.89 84.72 20.67 84.72 0.64 140.7 0.64 140.7 133.52"/></g></g></svg>