<svg xmlns="http://www.w3.org/2000/svg" viewBox="0 0 173.79 170.35"><defs><style>.cls-1{fill:#fff57d;}.cls-2{fill:#a32d1a;}.cls-3{fill:#f05e3d;}.cls-4{fill:#efdf4b;}.cls-5{fill:#20afaf;}.cls-6{fill:#6cddda;}.cls-7{fill:#3a827c;}.cls-8{fill:#c73514;}.cls-9{fill:#a3a158;}</style></defs><title>Asset 1</title><g id="Layer_2" data-name="Layer 2"><g id="Layer_1-2" data-name="Layer 1"><polygon class="cls-1" points="75.28 105.84 128.51 89.69 84.37 46.23 75.28 105.84"/><polygon class="cls-2" points="160.53 46.23 128.51 89.69 173.78 87.07 160.53 46.23"/><polygon class="cls-3" points="134.47 13.26 128.51 89.69 160.53 46.23 134.47 13.26"/><polygon class="cls-4" points="84.37 46.23 134.47 13.26 128.51 89.69 84.37 46.23"/><polygon class="cls-5" points="97.91 0 52.66 3.2 84.37 46.23 97.91 0"/><polygon class="cls-6" points="97.91 0 134.47 13.26 84.37 46.23 97.91 0"/><polygon class="cls-7" points="52.66 3.2 18.38 32.91 84.37 46.23 52.66 3.2"/><polygon class="cls-8" points="65.31 73.49 84.37 46.23 18.38 32.91 65.31 73.49"/><polygon class="cls-6" points="33.92 118.39 27.06 151.85 60.92 170.35 33.92 118.39"/><path class="cls-9" d="M33.92,118.38"/><polygon class="cls-5" points="33.92 118.39 60.92 170.35 75.28 105.84 33.92 118.39"/><polygon class="cls-1" points="60.92 170.35 92.11 133.13 107.83 170.35 60.92 170.35"/><path class="cls-4" d="M92.11,133.13l15.71,37.22s37.76-22.13,36.7-21.12Z"/><polygon class="cls-6" points="92.11 133.13 128.51 89.69 144.52 149.23 92.11 133.13"/><polygon class="cls-5" points="128.51 89.69 144.52 149.23 173.78 87.07 128.51 89.69"/><polygon class="cls-4" points="84.37 46.23 53.98 89.69 75.28 105.84 84.37 46.23"/><polygon class="cls-1" points="33.92 118.39 53.98 89.69 75.28 105.84 33.92 118.39"/><polygon class="cls-7" points="75.28 105.84 92.11 133.13 128.51 89.69 75.28 105.84"/><polygon class="cls-2" points="75.28 105.84 60.92 170.35 92.11 133.13 75.28 105.84"/><polygon class="cls-2" points="18.38 32.91 49.42 96.21 65.31 73.49 18.38 32.91"/><polygon class="cls-3" points="18.38 32.91 0 67.96 39.52 76.03 18.38 32.91"/><polyline class="cls-2" points="0 67.96 4.15 119.46 19.76 100.3 39.52 76.03"/><polygon class="cls-6" points="39.52 76.03 23.08 96.21 49.42 96.21 39.52 76.03"/><polygon class="cls-5" points="23.08 96.21 49.42 96.21 33.92 118.39 23.08 96.21"/><polygon class="cls-1" points="33.92 118.39 23.08 96.21 4.15 119.46 33.92 118.39"/><polygon class="cls-4" points="4.15 119.46 33.92 118.39 27.06 151.85 4.15 119.46"/></g></g></svg>